<svg width="8" height="8" viewBox="0 0 8 8" fill="none" xmlns="http://www.w3.org/2000/svg">
<path d="M1.31998 7.32999C1.19885 7.31972 1.08536 7.26653 0.999984 7.17999C0.90837 7.08652 0.857056 6.96086 0.857056 6.82999C0.857056 6.69911 0.90837 6.57345 0.999984 6.47999L6.65998 0.819987C6.70647 0.773123 6.76177 0.735926 6.8227 0.710542C6.88363 0.685157 6.94898 0.672089 7.01498 0.672089C7.08099 0.672089 7.14634 0.685157 7.20727 0.710542C7.2682 0.735926 7.3235 0.773123 7.36998 0.819987C7.4616 0.913452 7.51291 1.03911 7.51291 1.16999C7.51291 1.30086 7.4616 1.42652 7.36998 1.51999L1.66998 7.17999C1.57767 7.2742 1.45187 7.32811 1.31998 7.32999V7.32999Z" fill="black"/>
<path d="M6.99998 7.32999C6.93459 7.32961 6.86993 7.31614 6.80982 7.29038C6.74971 7.26462 6.69536 7.22708 6.64998 7.17999L0.999984 1.51999C0.90837 1.42652 0.857056 1.30086 0.857056 1.16999C0.857056 1.03911 0.90837 0.913452 0.999984 0.819987C1.04647 0.773123 1.10177 0.735926 1.1627 0.710542C1.22363 0.685157 1.28898 0.672089 1.35498 0.672089C1.42099 0.672089 1.48634 0.685157 1.54727 0.710542C1.6082 0.735926 1.6635 0.773123 1.70998 0.819987L7.36998 6.47999C7.4616 6.57345 7.51291 6.69911 7.51291 6.82999C7.51291 6.96086 7.4616 7.08652 7.36998 7.17999C7.32157 7.22859 7.26385 7.26693 7.20027 7.2927C7.1367 7.31847 7.06857 7.33115 6.99998 7.32999V7.32999Z" fill="black"/>
</svg>
